<?xml version="1.0" encoding="utf-8"?>
<!-- Generator: Adobe Illustrator 25.2.1, SVG Export Plug-In . SVG Version: 6.00 Build 0)  -->
<svg version="1.1" id="Layer_5" xmlns="http://www.w3.org/2000/svg" xmlns:xlink="http://www.w3.org/1999/xlink" x="0px" y="0px"
	 viewBox="0 0 200 400" style="enable-background:new 0 0 200 400;" xml:space="preserve">
<style type="text/css">
	.st0{fill:#F5CA9B;}
	.st1{fill:#FFFFFF;}
</style>
<g>
	<polygon points="100,211.1 98,211.1 98,206.01 96.96,206.01 96.96,204.93 95.97,204.93 95.97,198.04 94.99,198.04 94.99,196.96 
		93.93,196.96 93.93,192 95.01,192.01 95.01,190.93 96.02,190.93 96.02,189.9 97.02,189.9 97.02,189.04 103.85,189.04 
		103.85,189.85 105.07,189.85 105.07,193.01 105.92,193.01 105.92,197.01 105.07,197.01 105.07,197.91 103.94,197.91 103.94,204.98 
		102.98,204.97 102.98,205.98 102.05,205.98 102.05,209.93 103,209.93 103,210.91 101.15,210.87 101.15,206.82 99.04,206.87 
		99.04,210.06 99.98,210.06 	"/>
	<polygon class="st0" points="96.98,192.98 96.98,195 97.96,195 97.96,196.99 100.96,196.99 100.95,197.91 103.94,197.91 
		103.96,197.04 105.08,197.03 105.08,192.98 103.99,192.98 103.99,193.99 103,193.99 103,192.98 100.86,192.98 100.86,194.04 
		99.71,194.01 99.71,192.96 	"/>
	<polygon class="st1" points="95.01,196.98 95.01,192.01 96,192 96,190.96 96.98,190.98 96.98,189.99 103.99,189.99 103.99,191.97 
		97,191.97 95.97,191.99 95.97,193.01 95.97,196.98 	"/>
	<polyline class="st1" points="97,198 100,198 100,198.98 102.98,198.98 102.98,204.95 102.05,204.95 102.05,205.98 97.99,205.98 
		97.99,205.01 97,205.01 	"/>
	<rect x="98.01" y="200" width="0.98" height="2.98"/>
	<rect x="101" y="195" width="2" height="1"/>
</g>
</svg>
